<svg id="visual" viewBox="0 0 2000 1000" width="2000" height="1000" xmlns="http://www.w3.org/2000/svg" xmlns:xlink="http://www.w3.org/1999/xlink" version="1.1"><rect x="0" y="0" width="2000" height="1000" fill="#323232"></rect><defs><linearGradient id="grad1_0" x1="50%" y1="0%" x2="100%" y2="100%"><stop offset="10%" stop-color="#323232" stop-opacity="1"></stop><stop offset="90%" stop-color="#323232" stop-opacity="1"></stop></linearGradient></defs><defs><linearGradient id="grad2_0" x1="0%" y1="0%" x2="50%" y2="100%"><stop offset="10%" stop-color="#323232" stop-opacity="1"></stop><stop offset="90%" stop-color="#323232" stop-opacity="1"></stop></linearGradient></defs><g transform="translate(2000, 0)"><path d="M0 650C-41.5 607.8 -83 565.7 -125.7 550.8C-168.5 536 -212.5 548.4 -265.5 551.4C-318.6 554.4 -380.7 548 -405.3 508.2C-429.9 468.4 -417 395.3 -446.4 356C-475.8 316.8 -547.5 311.4 -582 280.3C-616.6 249.2 -613.9 192.3 -619.1 141.3C-624.2 90.3 -637.1 45.1 -650 0L0 0Z" fill="#55ff00"></path></g><g transform="translate(0, 1000)"><path d="M0 -650C44.3 -624.1 88.6 -598.2 133.7 -585.9C178.9 -573.7 224.9 -575.2 273.3 -567.6C321.8 -560 372.6 -543.4 405.3 -508.2C438 -473 452.5 -419.3 467.5 -372.8C482.5 -326.4 498 -287.1 517.2 -249C536.3 -211 559.3 -174.2 582 -132.8C604.8 -91.5 627.4 -45.8 650 0L0 0Z" fill="#55ff00"></path></g></svg>