<svg id="visual" viewBox="0 0 2000 800" width="2000" height="800" xmlns="http://www.w3.org/2000/svg" xmlns:xlink="http://www.w3.org/1999/xlink" version="1.1"><rect x="0" y="0" width="2000" height="800" fill="#111111"></rect><g transform="translate(1039.8548523699842 392.2661510181931)"><path d="M202.7 -269.4C251.3 -243.6 271.6 -169.2 295.8 -95.9C319.9 -22.6 347.8 49.8 331.3 109.9C314.9 170.1 254.1 218.1 191.5 255.3C128.9 292.4 64.5 318.7 -0.5 319.4C-65.4 320.1 -130.9 295.1 -210.1 263.4C-289.4 231.6 -382.5 193.1 -408.1 129.1C-433.7 65.1 -391.8 -24.3 -355.4 -109C-318.9 -193.7 -287.9 -273.6 -229.6 -296.3C-171.2 -319 -85.6 -284.5 -4.3 -278.6C77 -272.7 154 -295.3 202.7 -269.4" fill="#66ba00"></path></g></svg>