<svg id="visual" viewBox="0 0 1080 540" width="1080" height="540" xmlns="http://www.w3.org/2000/svg" xmlns:xlink="http://www.w3.org/1999/xlink" version="1.1"><rect x="0" y="0" width="1080" height="540" fill="#001220"></rect><path d="M0 374L18 382C36 390 72 406 108 409.8C144 413.7 180 405.3 216 406C252 406.7 288 416.3 324 415.2C360 414 396 402 432 396C468 390 504 390 540 392.7C576 395.3 612 400.7 648 407.5C684 414.3 720 422.7 756 424.7C792 426.7 828 422.3 864 418.3C900 414.3 936 410.7 972 399.8C1008 389 1044 371 1062 362L1080 353L1080 541L1062 541C1044 541 1008 541 972 541C936 541 900 541 864 541C828 541 792 541 756 541C720 541 684 541 648 541C612 541 576 541 540 541C504 541 468 541 432 541C396 541 360 541 324 541C288 541 252 541 216 541C180 541 144 541 108 541C72 541 36 541 18 541L0 541Z" fill="#a8d7fd"></path><path d="M0 398L18 404.8C36 411.7 72 425.3 108 425.8C144 426.3 180 413.7 216 408.8C252 404 288 407 324 406.5C360 406 396 402 432 407.7C468 413.3 504 428.7 540 431C576 433.3 612 422.7 648 418.2C684 413.7 720 415.3 756 410.3C792 405.3 828 393.7 864 396.3C900 399 936 416 972 425.5C1008 435 1044 437 1062 438L1080 439L1080 541L1062 541C1044 541 1008 541 972 541C936 541 900 541 864 541C828 541 792 541 756 541C720 541 684 541 648 541C612 541 576 541 540 541C504 541 468 541 432 541C396 541 360 541 324 541C288 541 252 541 216 541C180 541 144 541 108 541C72 541 36 541 18 541L0 541Z" fill="#73bdff"></path><path d="M0 412L18 416.5C36 421 72 430 108 436.7C144 443.3 180 447.7 216 443.7C252 439.7 288 427.3 324 427.3C360 427.3 396 439.7 432 444.5C468 449.3 504 446.7 540 445C576 443.3 612 442.7 648 445.5C684 448.3 720 454.7 756 454.7C792 454.7 828 448.3 864 444.3C900 440.3 936 438.7 972 440C1008 441.3 1044 445.7 1062 447.8L1080 450L1080 541L1062 541C1044 541 1008 541 972 541C936 541 900 541 864 541C828 541 792 541 756 541C720 541 684 541 648 541C612 541 576 541 540 541C504 541 468 541 432 541C396 541 360 541 324 541C288 541 252 541 216 541C180 541 144 541 108 541C72 541 36 541 18 541L0 541Z" fill="#39a1ff"></path><path d="M0 453L18 455.5C36 458 72 463 108 467.3C144 471.7 180 475.3 216 472.3C252 469.3 288 459.7 324 454.3C360 449 396 448 432 448.3C468 448.7 504 450.3 540 456.7C576 463 612 474 648 475.8C684 477.7 720 470.3 756 462C792 453.7 828 444.3 864 442.8C900 441.3 936 447.7 972 451.5C1008 455.3 1044 456.7 1062 457.3L1080 458L1080 541L1062 541C1044 541 1008 541 972 541C936 541 900 541 864 541C828 541 792 541 756 541C720 541 684 541 648 541C612 541 576 541 540 541C504 541 468 541 432 541C396 541 360 541 324 541C288 541 252 541 216 541C180 541 144 541 108 541C72 541 36 541 18 541L0 541Z" fill="#0083ff"></path><path d="M0 506L18 500.2C36 494.3 72 482.7 108 480C144 477.3 180 483.7 216 486.8C252 490 288 490 324 492.2C360 494.3 396 498.7 432 500.7C468 502.7 504 502.3 540 501C576 499.7 612 497.3 648 492.3C684 487.3 720 479.7 756 480.8C792 482 828 492 864 495.8C900 499.7 936 497.3 972 491.7C1008 486 1044 477 1062 472.5L1080 468L1080 541L1062 541C1044 541 1008 541 972 541C936 541 900 541 864 541C828 541 792 541 756 541C720 541 684 541 648 541C612 541 576 541 540 541C504 541 468 541 432 541C396 541 360 541 324 541C288 541 252 541 216 541C180 541 144 541 108 541C72 541 36 541 18 541L0 541Z" fill="#005cff"></path><path d="M0 525L18 523.7C36 522.3 72 519.7 108 515.3C144 511 180 505 216 501.7C252 498.3 288 497.7 324 500.5C360 503.3 396 509.7 432 514.3C468 519 504 522 540 520.5C576 519 612 513 648 511.7C684 510.3 720 513.7 756 515C792 516.3 828 515.7 864 511.7C900 507.7 936 500.3 972 500.7C1008 501 1044 509 1062 513L1080 517L1080 541L1062 541C1044 541 1008 541 972 541C936 541 900 541 864 541C828 541 792 541 756 541C720 541 684 541 648 541C612 541 576 541 540 541C504 541 468 541 432 541C396 541 360 541 324 541C288 541 252 541 216 541C180 541 144 541 108 541C72 541 36 541 18 541L0 541Z" fill="#6600ff"></path></svg>