<svg id="visual" viewBox="0 0 960 540" width="960" height="540" xmlns="http://www.w3.org/2000/svg" xmlns:xlink="http://www.w3.org/1999/xlink" version="1.1"><rect x="0" y="0" width="960" height="540" fill="#001220"></rect><defs><linearGradient id="grad1_0" x1="43.8%" y1="0%" x2="100%" y2="100%"><stop offset="14.444444444444446%" stop-color="#001220" stop-opacity="1"></stop><stop offset="85.55555555555554%" stop-color="#001220" stop-opacity="1"></stop></linearGradient></defs><defs><linearGradient id="grad2_0" x1="0%" y1="0%" x2="56.3%" y2="100%"><stop offset="14.444444444444446%" stop-color="#001220" stop-opacity="1"></stop><stop offset="85.55555555555554%" stop-color="#001220" stop-opacity="1"></stop></linearGradient></defs><g transform="translate(960, 0)"><path d="M0 378C-41.2 345.7 -82.3 313.4 -120.5 291C-158.8 268.7 -194 256.3 -235.5 235.5C-276.9 214.6 -324.4 185.3 -349.2 144.7C-374 104 -376 52 -378 0L0 0Z" fill="#42fa3c"></path></g><g transform="translate(0, 540)"><path d="M0 -378C44 -353.5 88.1 -329 127.1 -306.7C166 -284.5 199.9 -264.5 239.7 -239.7C279.5 -214.9 325.2 -185.4 349.2 -144.7C373.3 -103.9 375.6 -52 378 0L0 0Z" fill="#42fa3c"></path></g></svg>